<mxfile host="app.diagrams.net" modified="2020-03-26T12:20:37.829Z" agent="Mozilla/5.0 (Windows NT 10.0; Win64; x64) AppleWebKit/537.36 (KHTML, like Gecko) Chrome/80.0.3987.149 Safari/537.36" etag="tH6tjKFcAu4kUXgiUySB" version="12.9.2" type="github">
  <diagram id="C5RBs43oDa-KdzZeNtuy" name="Page-1">
    <mxGraphModel dx="1483" dy="783" grid="1" gridSize="9" guides="1" tooltips="1" connect="1" arrows="1" fold="1" page="1" pageScale="1" pageWidth="827" pageHeight="827" math="0" shadow="0">
      <root>
        <mxCell id="WIyWlLk6GJQsqaUBKTNV-0" />
        <mxCell id="WIyWlLk6GJQsqaUBKTNV-1" parent="WIyWlLk6GJQsqaUBKTNV-0" />
        <mxCell id="KDrsEPElmd4kBVry5jFi-3" style="edgeStyle=orthogonalEdgeStyle;rounded=0;orthogonalLoop=1;jettySize=auto;html=1;exitX=0.5;exitY=1;exitDx=0;exitDy=0;" edge="1" parent="WIyWlLk6GJQsqaUBKTNV-1" source="KDrsEPElmd4kBVry5jFi-1">
          <mxGeometry relative="1" as="geometry">
            <mxPoint x="414" y="126" as="targetPoint" />
          </mxGeometry>
        </mxCell>
        <mxCell id="KDrsEPElmd4kBVry5jFi-1" value="&lt;font size=&quot;3&quot;&gt;เริ่มต้น&lt;/font&gt;" style="rounded=1;whiteSpace=wrap;html=1;absoluteArcSize=1;arcSize=100;strokeWidth=2;fillColor=#f8cecc;strokeColor=#b85450;" vertex="1" parent="WIyWlLk6GJQsqaUBKTNV-1">
          <mxGeometry x="364" y="40" width="100" height="50" as="geometry" />
        </mxCell>
        <mxCell id="KDrsEPElmd4kBVry5jFi-6" style="edgeStyle=orthogonalEdgeStyle;rounded=0;orthogonalLoop=1;jettySize=auto;html=1;exitX=0.5;exitY=1;exitDx=0;exitDy=0;" edge="1" parent="WIyWlLk6GJQsqaUBKTNV-1" source="KDrsEPElmd4kBVry5jFi-4">
          <mxGeometry relative="1" as="geometry">
            <mxPoint x="414" y="216" as="targetPoint" />
          </mxGeometry>
        </mxCell>
        <mxCell id="KDrsEPElmd4kBVry5jFi-4" value="รับค่าหลอดไฟ" style="rounded=1;whiteSpace=wrap;html=1;absoluteArcSize=1;arcSize=0;strokeWidth=2;fillColor=#dae8fc;strokeColor=#6c8ebf;" vertex="1" parent="WIyWlLk6GJQsqaUBKTNV-1">
          <mxGeometry x="346" y="126" width="135" height="54" as="geometry" />
        </mxCell>
        <mxCell id="KDrsEPElmd4kBVry5jFi-12" value="" style="group" vertex="1" connectable="0" parent="WIyWlLk6GJQsqaUBKTNV-1">
          <mxGeometry x="216" y="306" width="396" height="108" as="geometry" />
        </mxCell>
        <mxCell id="KDrsEPElmd4kBVry5jFi-8" style="edgeStyle=orthogonalEdgeStyle;rounded=0;orthogonalLoop=1;jettySize=auto;html=1;exitX=0;exitY=0.5;exitDx=0;exitDy=0;exitPerimeter=0;" edge="1" parent="KDrsEPElmd4kBVry5jFi-12" source="KDrsEPElmd4kBVry5jFi-7">
          <mxGeometry relative="1" as="geometry">
            <mxPoint y="99" as="targetPoint" />
          </mxGeometry>
        </mxCell>
        <mxCell id="KDrsEPElmd4kBVry5jFi-9" style="edgeStyle=orthogonalEdgeStyle;rounded=0;orthogonalLoop=1;jettySize=auto;html=1;exitX=1;exitY=0.5;exitDx=0;exitDy=0;exitPerimeter=0;" edge="1" parent="KDrsEPElmd4kBVry5jFi-12" source="KDrsEPElmd4kBVry5jFi-7">
          <mxGeometry relative="1" as="geometry">
            <mxPoint x="396" y="108" as="targetPoint" />
          </mxGeometry>
        </mxCell>
        <mxCell id="KDrsEPElmd4kBVry5jFi-7" value="เป็นหลอดไฟดวงที่&lt;br&gt;2-13" style="strokeWidth=2;html=1;shape=mxgraph.flowchart.decision;whiteSpace=wrap;fillColor=#fff2cc;strokeColor=#d6b656;" vertex="1" parent="KDrsEPElmd4kBVry5jFi-12">
          <mxGeometry x="126" width="144" height="90" as="geometry" />
        </mxCell>
        <mxCell id="KDrsEPElmd4kBVry5jFi-10" value="&lt;font style=&quot;font-size: 14px&quot;&gt;ใช่&lt;/font&gt;" style="text;html=1;align=center;verticalAlign=middle;resizable=0;points=[];autosize=1;" vertex="1" parent="KDrsEPElmd4kBVry5jFi-12">
          <mxGeometry x="43" y="27" width="27" height="18" as="geometry" />
        </mxCell>
        <mxCell id="KDrsEPElmd4kBVry5jFi-11" value="&lt;font style=&quot;font-size: 14px&quot;&gt;ไม่ใช่&lt;/font&gt;" style="text;html=1;align=center;verticalAlign=middle;resizable=0;points=[];autosize=1;" vertex="1" parent="KDrsEPElmd4kBVry5jFi-12">
          <mxGeometry x="315" y="27" width="45" height="18" as="geometry" />
        </mxCell>
        <mxCell id="KDrsEPElmd4kBVry5jFi-15" style="edgeStyle=orthogonalEdgeStyle;rounded=0;orthogonalLoop=1;jettySize=auto;html=1;exitX=0.5;exitY=1;exitDx=0;exitDy=0;" edge="1" parent="WIyWlLk6GJQsqaUBKTNV-1" source="KDrsEPElmd4kBVry5jFi-14">
          <mxGeometry relative="1" as="geometry">
            <mxPoint x="414" y="306" as="targetPoint" />
          </mxGeometry>
        </mxCell>
        <mxCell id="KDrsEPElmd4kBVry5jFi-14" value="อ่านค่าหลอดไฟ" style="shape=parallelogram;html=1;strokeWidth=2;perimeter=parallelogramPerimeter;whiteSpace=wrap;rounded=1;arcSize=0;size=0.23;fillColor=#d5e8d4;strokeColor=#82b366;" vertex="1" parent="WIyWlLk6GJQsqaUBKTNV-1">
          <mxGeometry x="342" y="216" width="144" height="54" as="geometry" />
        </mxCell>
        <mxCell id="KDrsEPElmd4kBVry5jFi-38" style="edgeStyle=orthogonalEdgeStyle;rounded=0;orthogonalLoop=1;jettySize=auto;html=1;exitX=0.5;exitY=1;exitDx=0;exitDy=0;" edge="1" parent="WIyWlLk6GJQsqaUBKTNV-1" source="KDrsEPElmd4kBVry5jFi-16">
          <mxGeometry relative="1" as="geometry">
            <mxPoint x="612.2758620689656" y="513.0000000000001" as="targetPoint" />
          </mxGeometry>
        </mxCell>
        <mxCell id="KDrsEPElmd4kBVry5jFi-16" value="ไฟไม่ติด" style="rounded=1;whiteSpace=wrap;html=1;absoluteArcSize=1;arcSize=0;strokeWidth=2;fillColor=#dae8fc;strokeColor=#6c8ebf;" vertex="1" parent="WIyWlLk6GJQsqaUBKTNV-1">
          <mxGeometry x="549" y="414" width="126" height="54" as="geometry" />
        </mxCell>
        <mxCell id="KDrsEPElmd4kBVry5jFi-19" style="edgeStyle=orthogonalEdgeStyle;rounded=0;orthogonalLoop=1;jettySize=auto;html=1;exitX=0.5;exitY=1;exitDx=0;exitDy=0;" edge="1" parent="WIyWlLk6GJQsqaUBKTNV-1" source="KDrsEPElmd4kBVry5jFi-17">
          <mxGeometry relative="1" as="geometry">
            <mxPoint x="216" y="504" as="targetPoint" />
          </mxGeometry>
        </mxCell>
        <mxCell id="KDrsEPElmd4kBVry5jFi-17" value="&lt;font face=&quot;monospace&quot; style=&quot;font-size: 14px&quot;&gt;ไฟติด&lt;/font&gt;" style="rounded=1;whiteSpace=wrap;html=1;absoluteArcSize=1;arcSize=0;strokeWidth=2;fillColor=#dae8fc;strokeColor=#6c8ebf;" vertex="1" parent="WIyWlLk6GJQsqaUBKTNV-1">
          <mxGeometry x="153" y="405" width="126" height="54" as="geometry" />
        </mxCell>
        <mxCell id="KDrsEPElmd4kBVry5jFi-30" style="edgeStyle=orthogonalEdgeStyle;rounded=0;orthogonalLoop=1;jettySize=auto;html=1;exitX=0.5;exitY=1;exitDx=0;exitDy=0;entryX=0.5;entryY=0;entryDx=0;entryDy=0;" edge="1" parent="WIyWlLk6GJQsqaUBKTNV-1" source="KDrsEPElmd4kBVry5jFi-18" target="KDrsEPElmd4kBVry5jFi-26">
          <mxGeometry relative="1" as="geometry" />
        </mxCell>
        <mxCell id="KDrsEPElmd4kBVry5jFi-18" value="&lt;span style=&quot;color: rgba(0 , 0 , 0 , 0) ; font-family: monospace ; font-size: 0px&quot;&gt;ดี&lt;/span&gt;" style="rounded=1;whiteSpace=wrap;html=1;absoluteArcSize=1;arcSize=0;strokeWidth=2;fillColor=#dae8fc;strokeColor=#6c8ebf;" vertex="1" parent="WIyWlLk6GJQsqaUBKTNV-1">
          <mxGeometry x="153" y="504" width="126" height="54" as="geometry" />
        </mxCell>
        <mxCell id="KDrsEPElmd4kBVry5jFi-20" value="&lt;font style=&quot;font-size: 14px&quot;&gt;ดีเลย์ 500 ms&lt;/font&gt;" style="text;html=1;align=center;verticalAlign=middle;resizable=0;points=[];autosize=1;" vertex="1" parent="WIyWlLk6GJQsqaUBKTNV-1">
          <mxGeometry x="171" y="522" width="90" height="18" as="geometry" />
        </mxCell>
        <mxCell id="KDrsEPElmd4kBVry5jFi-28" style="edgeStyle=orthogonalEdgeStyle;rounded=0;orthogonalLoop=1;jettySize=auto;html=1;exitX=0.5;exitY=1;exitDx=0;exitDy=0;" edge="1" parent="WIyWlLk6GJQsqaUBKTNV-1" source="KDrsEPElmd4kBVry5jFi-26">
          <mxGeometry relative="1" as="geometry">
            <mxPoint x="215.97674418604652" y="702" as="targetPoint" />
          </mxGeometry>
        </mxCell>
        <mxCell id="KDrsEPElmd4kBVry5jFi-26" value="&lt;font style=&quot;font-size: 14px&quot;&gt;ไฟดับ&lt;/font&gt;" style="rounded=1;whiteSpace=wrap;html=1;absoluteArcSize=1;arcSize=0;strokeWidth=2;fillColor=#dae8fc;strokeColor=#6c8ebf;" vertex="1" parent="WIyWlLk6GJQsqaUBKTNV-1">
          <mxGeometry x="153" y="603" width="126" height="54" as="geometry" />
        </mxCell>
        <mxCell id="KDrsEPElmd4kBVry5jFi-31" style="edgeStyle=orthogonalEdgeStyle;rounded=0;orthogonalLoop=1;jettySize=auto;html=1;exitX=0;exitY=0.5;exitDx=0;exitDy=0;entryX=0;entryY=0.5;entryDx=0;entryDy=0;" edge="1" parent="WIyWlLk6GJQsqaUBKTNV-1" source="KDrsEPElmd4kBVry5jFi-27" target="KDrsEPElmd4kBVry5jFi-17">
          <mxGeometry relative="1" as="geometry">
            <Array as="points">
              <mxPoint x="108" y="729" />
              <mxPoint x="108" y="432" />
            </Array>
          </mxGeometry>
        </mxCell>
        <mxCell id="KDrsEPElmd4kBVry5jFi-27" value="&lt;font style=&quot;font-size: 14px&quot;&gt;ดีเลย์ 500 ms&lt;/font&gt;" style="rounded=1;whiteSpace=wrap;html=1;absoluteArcSize=1;arcSize=0;strokeWidth=2;fillColor=#dae8fc;strokeColor=#6c8ebf;" vertex="1" parent="WIyWlLk6GJQsqaUBKTNV-1">
          <mxGeometry x="153" y="702" width="126" height="54" as="geometry" />
        </mxCell>
        <mxCell id="KDrsEPElmd4kBVry5jFi-39" value="&lt;font size=&quot;3&quot;&gt;จบ&lt;/font&gt;" style="rounded=1;whiteSpace=wrap;html=1;absoluteArcSize=1;arcSize=100;strokeWidth=2;fillColor=#f8cecc;strokeColor=#b85450;" vertex="1" parent="WIyWlLk6GJQsqaUBKTNV-1">
          <mxGeometry x="562" y="513" width="100" height="50" as="geometry" />
        </mxCell>
      </root>
    </mxGraphModel>
  </diagram>
</mxfile>
